M48
; DRILL file {KiCad (5.1.6)-1} date 03/03/22 12:10:03
; FORMAT={-:-/ absolute / inch / decimal}
; #@! TF.CreationDate,2022-03-03T12:10:03+01:00
; #@! TF.GenerationSoftware,Kicad,Pcbnew,(5.1.6)-1
FMAT,2
INCH
T1C0.0276
T2C0.0315
T3C0.0374
T4C0.0394
T5C0.0551
T6C0.0472
%
G90
G05
T1
X5.6275Y-4.004
X5.9275Y-4.004
X5.6275Y-3.914
X5.9275Y-3.914
T2
X5.4275Y-3.705
X5.4275Y-4.205
X5.5275Y-3.705
X5.5275Y-4.205
X5.6275Y-3.705
X5.6275Y-4.205
X5.7275Y-3.705
X5.7275Y-4.205
X5.8275Y-3.705
X5.8275Y-4.205
X5.9275Y-3.705
X5.9275Y-4.205
X6.0275Y-3.705
X6.0275Y-4.205
X6.1275Y-3.705
X6.1275Y-4.205
T3
X5.158Y-3.808
X5.158Y-3.9064
X5.158Y-4.0049
X5.158Y-4.1033
T4
X5.938Y-3.2816
X5.938Y-3.38
X6.338Y-3.716
X6.338Y-3.816
X6.338Y-3.916
X6.338Y-4.016
X6.338Y-4.116
X6.338Y-4.216
X6.438Y-3.716
X6.438Y-3.816
X6.438Y-3.916
X6.438Y-4.016
X6.438Y-4.116
X6.438Y-4.216
X5.676Y-3.232
X5.676Y-3.332
X5.676Y-3.432
X5.676Y-3.532
X6.272Y-3.2816
X6.272Y-3.38
T5
X5.1425Y-3.4975
X5.3425Y-3.4975
T6
X6.3507Y-3.443
X6.0167Y-3.443
X5.0793Y-3.745
T0
M30
