%TF.GenerationSoftware,KiCad,Pcbnew,(5.1.6)-1*%
%TF.CreationDate,2022-03-03T12:09:35+01:00*%
%TF.ProjectId,pmod_shield,706d6f64-5f73-4686-9965-6c642e6b6963,rev?*%
%TF.SameCoordinates,Original*%
%TF.FileFunction,Soldermask,Bot*%
%TF.FilePolarity,Negative*%
%FSLAX46Y46*%
G04 Gerber Fmt 4.6, Leading zero omitted, Abs format (unit mm)*
G04 Created by KiCad (PCBNEW (5.1.6)-1) date 2022-03-03 12:09:35*
%MOMM*%
%LPD*%
G01*
G04 APERTURE LIST*
%ADD10O,1.700000X1.700000*%
%ADD11R,1.700000X1.700000*%
%ADD12C,1.300000*%
%ADD13O,2.100000X1.800000*%
%ADD14O,2.050000X1.800000*%
%ADD15O,2.180000X3.700000*%
%ADD16O,1.800000X1.800000*%
%ADD17R,1.800000X1.800000*%
%ADD18C,1.500000*%
%ADD19O,1.500000X1.500000*%
G04 APERTURE END LIST*
D10*
%TO.C,A1*%
X155638500Y-106807000D03*
X137858500Y-94107000D03*
X153098500Y-106807000D03*
X140398500Y-94107000D03*
X150558500Y-106807000D03*
X142938500Y-94107000D03*
X148018500Y-106807000D03*
X145478500Y-94107000D03*
X145478500Y-106807000D03*
X148018500Y-94107000D03*
X142938500Y-106807000D03*
X150558500Y-94107000D03*
X140398500Y-106807000D03*
X153098500Y-94107000D03*
X137858500Y-106807000D03*
D11*
X155638500Y-94107000D03*
%TD*%
D12*
%TO.C,J5*%
X161308800Y-87452000D03*
D13*
X159308800Y-83352000D03*
G36*
G01*
X160094094Y-86752000D02*
X158523506Y-86752000D01*
G75*
G02*
X158258800Y-86487294I0J264706D01*
G01*
X158258800Y-85216706D01*
G75*
G02*
X158523506Y-84952000I264706J0D01*
G01*
X160094094Y-84952000D01*
G75*
G02*
X160358800Y-85216706I0J-264706D01*
G01*
X160358800Y-86487294D01*
G75*
G02*
X160094094Y-86752000I-264706J0D01*
G01*
G37*
%TD*%
D12*
%TO.C,J4*%
X152825200Y-87452000D03*
D13*
X150825200Y-83352000D03*
G36*
G01*
X151610494Y-86752000D02*
X150039906Y-86752000D01*
G75*
G02*
X149775200Y-86487294I0J264706D01*
G01*
X149775200Y-85216706D01*
G75*
G02*
X150039906Y-84952000I264706J0D01*
G01*
X151610494Y-84952000D01*
G75*
G02*
X151875200Y-85216706I0J-264706D01*
G01*
X151875200Y-86487294D01*
G75*
G02*
X151610494Y-86752000I-264706J0D01*
G01*
G37*
%TD*%
D12*
%TO.C,J6*%
X129013200Y-95123200D03*
D14*
X131013200Y-104223200D03*
X131013200Y-101723200D03*
X131013200Y-99223200D03*
G36*
G01*
X130252906Y-95823200D02*
X131773494Y-95823200D01*
G75*
G02*
X132038200Y-96087906I0J-264706D01*
G01*
X132038200Y-97358494D01*
G75*
G02*
X131773494Y-97623200I-264706J0D01*
G01*
X130252906Y-97623200D01*
G75*
G02*
X129988200Y-97358494I0J264706D01*
G01*
X129988200Y-96087906D01*
G75*
G02*
X130252906Y-95823200I264706J0D01*
G01*
G37*
%TD*%
D15*
%TO.C,J3*%
X130619500Y-88836500D03*
G36*
G01*
X136789500Y-87248518D02*
X136789500Y-90424482D01*
G75*
G02*
X136527482Y-90686500I-262018J0D01*
G01*
X134871518Y-90686500D01*
G75*
G02*
X134609500Y-90424482I0J262018D01*
G01*
X134609500Y-87248518D01*
G75*
G02*
X134871518Y-86986500I262018J0D01*
G01*
X136527482Y-86986500D01*
G75*
G02*
X136789500Y-87248518I0J-262018D01*
G01*
G37*
%TD*%
D16*
%TO.C,J2*%
X163525200Y-107086400D03*
X160985200Y-107086400D03*
X163525200Y-104546400D03*
X160985200Y-104546400D03*
X163525200Y-102006400D03*
X160985200Y-102006400D03*
X163525200Y-99466400D03*
X160985200Y-99466400D03*
X163525200Y-96926400D03*
X160985200Y-96926400D03*
X163525200Y-94386400D03*
D17*
X160985200Y-94386400D03*
%TD*%
D18*
%TO.C,R2*%
X150558500Y-101701600D03*
D19*
X142938500Y-101701600D03*
%TD*%
D18*
%TO.C,R1*%
X150558500Y-99415600D03*
D19*
X142938500Y-99415600D03*
%TD*%
D16*
%TO.C,J1*%
X144170400Y-89712800D03*
X144170400Y-87172800D03*
X144170400Y-84632800D03*
D17*
X144170400Y-82092800D03*
%TD*%
M02*
